<?xml version="1.0" encoding="UTF-8"?>
<svg version="1.1" xmlns="http://www.w3.org/2000/svg" viewBox="0 0 128 128" width="128" height="128">
<style>.ol{stroke:#1f2937;stroke-width:8;stroke-linejoin:round;stroke-linecap:round;paint-order:stroke}@media(prefers-color-scheme:dark){.ol{stroke:#f1f5f9}}</style>
<g class="ol">
<path d="M0 0 C3.24649718 0.05255121 3.82008382 0.07905194 6.25 2.4375 C7.40827454 6.32599311 6.79748159 8.81069498 5.125 12.375 C3.566767 14.97740976 1.96218162 17.52579548 0.26953125 20.04296875 C-1.07433835 22.27119705 -1.07433835 22.27119705 -0.6796875 24.5546875 C0.07392582 26.57925451 0.07392582 26.57925451 2.1875 28.3125 C4.125 30.375 4.125 30.375 4.24609375 33.00390625 C4.18615234 34.17759766 4.18615234 34.17759766 4.125 35.375 C4.81126465 35.35928955 5.4975293 35.3435791 6.20458984 35.32739258 C9.30297663 35.26517281 12.40123224 35.22605102 15.5 35.1875 C16.58023438 35.16236328 17.66046875 35.13722656 18.7734375 35.11132812 C19.8046875 35.10166016 20.8359375 35.09199219 21.8984375 35.08203125 C22.85153809 35.0663208 23.80463867 35.05061035 24.78662109 35.03442383 C25.94411865 35.20300903 25.94411865 35.20300903 27.125 35.375 C29.41513653 38.8102048 29.30342973 40.360331 29.125 44.375 C30.61 44.87 30.61 44.87 32.125 45.375 C31.795 47.025 31.465 48.675 31.125 50.375 C30.465 50.375 29.805 50.375 29.125 50.375 C29.125 57.305 29.125 64.235 29.125 71.375 C30.61 71.87 30.61 71.87 32.125 72.375 C32.15185412 74.68743792 32.17132841 76.9999627 32.1875 79.3125 C32.19910156 80.60027344 32.21070312 81.88804688 32.22265625 83.21484375 C32.125 86.375 32.125 86.375 31.125 87.375 C29.57344068 87.47521562 28.01732929 87.50575659 26.46253967 87.50871277 C24.95026543 87.51511024 24.95026543 87.51511024 23.40744019 87.52163696 C22.29208893 87.52118378 21.17673767 87.52073059 20.02758789 87.52026367 C18.86022598 87.52362228 17.69286407 87.5269809 16.49012756 87.53044128 C13.27940103 87.53833677 10.06871321 87.54162021 6.85797811 87.54225707 C4.18141504 87.54320461 1.50485822 87.54688112 -1.17170244 87.55042917 C-7.48450731 87.55858115 -13.7972979 87.56101273 -20.11010742 87.56030273 C-26.63062242 87.55970177 -33.15105472 87.57025551 -39.67154878 87.5860464 C-45.26221608 87.59910499 -50.85285629 87.60448734 -56.44353873 87.60384732 C-59.78592014 87.60359183 -63.12822812 87.60647087 -66.47059441 87.61702538 C-70.19653151 87.62676812 -73.92225316 87.62396991 -77.64819336 87.61791992 C-78.76152039 87.62353943 -79.87484741 87.62915894 -81.02191162 87.63494873 C-82.03291428 87.63075424 -83.04391693 87.62655975 -84.08555603 87.62223816 C-84.96733489 87.62278293 -85.84911375 87.62332769 -86.75761318 87.62388897 C-88.875 87.375 -88.875 87.375 -90.875 85.375 C-91.17578125 82.40625 -91.17578125 82.40625 -91.1875 78.875 C-91.20425781 77.7096875 -91.22101563 76.544375 -91.23828125 75.34375 C-91.11839844 74.3640625 -90.99851562 73.384375 -90.875 72.375 C-89.39 71.385 -89.39 71.385 -87.875 70.375 C-87.58594463 67.5437208 -87.58594463 67.5437208 -87.8125 64.375 C-87.96484375 61.125 -87.96484375 61.125 -87.875 58.375 C-85.3095406 55.8095406 -83.39813332 55.83453913 -79.875 55.375 C-79.60945313 54.61574219 -79.34390625 53.85648438 -79.0703125 53.07421875 C-78.71710938 52.08035156 -78.36390625 51.08648437 -78 50.0625 C-77.65195313 49.07636719 -77.30390625 48.09023437 -76.9453125 47.07421875 C-75.875 44.375 -75.875 44.375 -73.875 41.375 C-74.23388035 38.41423709 -74.72158021 37.52841979 -76.875 35.375 C-76.98840772 31.40572984 -75.19130587 29.30113125 -72.625 26.5 C-69.33454068 23.38521202 -69.33454068 23.38521202 -66.0625 23.3125 C-63.875 24.375 -63.875 24.375 -61.875 26.375 C-55.96411619 25.7343098 -49.94489597 23.42467788 -44.875 20.375 C-43.4859438 16.7622476 -43.4859438 16.7622476 -43.875 13.375 C-42.875 12.375 -42.875 12.375 -39.93359375 12.27734375 C-38.14115234 12.29474609 -38.14115234 12.29474609 -36.3125 12.3125 C-34.51619141 12.32603516 -34.51619141 12.32603516 -32.68359375 12.33984375 C-31.75675781 12.35144531 -30.82992187 12.36304688 -29.875 12.375 C-27.875 19.125 -27.875 19.125 -27.875 21.375 C-27.27171875 21.49617188 -26.6684375 21.61734375 -26.046875 21.7421875 C-25.24765625 21.90976562 -24.4484375 22.07734375 -23.625 22.25 C-22.44164063 22.49363281 -22.44164063 22.49363281 -21.234375 22.7421875 C-18.90668856 23.36650075 -16.98468048 24.22338542 -14.875 25.375 C-15.02775391 23.91707031 -15.02775391 23.91707031 -15.18359375 22.4296875 C-15.18230737 17.32275019 -12.59264662 13.70186913 -9.9375 9.5 C-9.46892578 8.72914062 -9.00035156 7.95828125 -8.51757812 7.1640625 C-4.39483579 0.42530669 -4.39483579 0.42530669 0 0 Z M-54.46484375 54.37109375 C-58.3025867 59.82472847 -58.06947424 64.95735001 -57.875 71.375 C-54.905 71.375 -51.935 71.375 -48.875 71.375 C-48.76542969 70.47136719 -48.65585937 69.56773438 -48.54296875 68.63671875 C-48.30513672 66.86748047 -48.30513672 66.86748047 -48.0625 65.0625 C-47.83626953 63.30486328 -47.83626953 63.30486328 -47.60546875 61.51171875 C-46.86827335 58.34611496 -46.4339719 57.2636115 -43.875 55.375 C-41.31512719 54.0950636 -39.35663594 54.30360979 -36.5 54.25 C-32.43169282 54.02800596 -32.43169282 54.02800596 -29.26171875 51.75390625 C-28.02250015 49.62137931 -28.02250015 49.62137931 -26.875 46.375 C-37.67366793 40.80149397 -47.41039956 45.64543727 -54.46484375 54.37109375 Z M-20.875 50.375 C-21.205 51.365 -21.535 52.355 -21.875 53.375 C-20.555 53.045 -19.235 52.715 -17.875 52.375 C-18.865 51.715 -19.855 51.055 -20.875 50.375 Z " fill="#8B828E" transform="translate(92.875,34.625)"/>
<path d="M0 0 C1.17111328 -0.020625 2.34222656 -0.04125 3.54882812 -0.0625 C4.66580078 -0.06765625 5.78277344 -0.0728125 6.93359375 -0.078125 C7.96411865 -0.0874707 8.99464355 -0.09681641 10.05639648 -0.10644531 C10.88341064 0.01118164 11.7104248 0.12880859 12.5625 0.25 C14.85263653 3.6852048 14.74092973 5.235331 14.5625 9.25 C15.5525 9.58 16.5425 9.91 17.5625 10.25 C17.2325 11.9 16.9025 13.55 16.5625 15.25 C15.9025 15.25 15.2425 15.25 14.5625 15.25 C14.5625 22.18 14.5625 29.11 14.5625 36.25 C16.0475 36.745 16.0475 36.745 17.5625 37.25 C17.58935412 39.56243792 17.60882841 41.8749627 17.625 44.1875 C17.63660156 45.47527344 17.64820312 46.76304688 17.66015625 48.08984375 C17.5625 51.25 17.5625 51.25 16.5625 52.25 C15.01094068 52.35021562 13.45482929 52.38075659 11.90003967 52.38371277 C10.38776543 52.39011024 10.38776543 52.39011024 8.84494019 52.39663696 C7.72958893 52.39618378 6.61423767 52.39573059 5.46508789 52.39526367 C4.29772598 52.39862228 3.13036407 52.4019809 1.92762756 52.40544128 C-1.28309897 52.41333677 -4.49378679 52.41662021 -7.70452189 52.41725707 C-10.38108496 52.41820461 -13.05764178 52.42188112 -15.73420244 52.42542917 C-22.04700731 52.43358115 -28.3597979 52.43601273 -34.67260742 52.43530273 C-41.19312242 52.43470177 -47.71355472 52.44525551 -54.23404878 52.4610464 C-59.82471608 52.47410499 -65.41535629 52.47948734 -71.00603873 52.47884732 C-74.34842014 52.47859183 -77.69072812 52.48147087 -81.03309441 52.49202538 C-84.75903151 52.50176812 -88.48475316 52.49896991 -92.21069336 52.49291992 C-93.32402039 52.49853943 -94.43734741 52.50415894 -95.58441162 52.50994873 C-96.59541428 52.50575424 -97.60641693 52.50155975 -98.64805603 52.49723816 C-99.52983489 52.49778293 -100.41161375 52.49832769 -101.32011318 52.49888897 C-103.4375 52.25 -103.4375 52.25 -105.4375 50.25 C-105.66796875 47.24609375 -105.66796875 47.24609375 -105.625 43.6875 C-105.61533203 41.92212891 -105.61533203 41.92212891 -105.60546875 40.12109375 C-105.4375 37.25 -105.4375 37.25 -104.4375 36.25 C-103.07141674 36.15464787 -101.70044545 36.1281133 -100.33103943 36.12974548 C-99.44617859 36.12837082 -98.56131775 36.12699615 -97.64964294 36.12557983 C-96.67141068 36.12917511 -95.69317841 36.13277039 -94.68530273 36.13647461 C-93.6610318 36.13632858 -92.63676086 36.13618256 -91.58145142 36.1360321 C-88.17797771 36.13673172 -84.77455796 36.14452637 -81.37109375 36.15234375 C-79.01839732 36.15420776 -76.6657005 36.15563174 -74.31300354 36.15663147 C-68.10693295 36.16045801 -61.9008856 36.17028945 -55.69482422 36.18133545 C-49.36751622 36.19154666 -43.04020448 36.19612846 -36.71289062 36.20117188 C-24.28775018 36.2119116 -11.86262702 36.22898964 0.5625 36.25 C0.2325 31.96 -0.0975 27.67 -0.4375 23.25 C-1.51 23.07082031 -2.5825 22.89164063 -3.6875 22.70703125 C-7.18870394 21.70202336 -7.45028839 21.23123926 -9.6875 17.94921875 C-10.29686996 16.62364124 -10.87974977 15.28561059 -11.4375 13.9375 C-11.74816406 13.27298828 -12.05882813 12.60847656 -12.37890625 11.92382812 C-14.10231711 8.01717257 -14.90765479 5.33121094 -13.4375 1.25 C-10.83654644 -1.35095356 -3.49893851 0.01535464 0 0 Z " fill="#776D79" transform="translate(107.4375,69.75)"/>
<path d="M0 0 C1.79244141 0.01740234 1.79244141 0.01740234 3.62109375 0.03515625 C5.41740234 0.04869141 5.41740234 0.04869141 7.25 0.0625 C8.17683594 0.07410156 9.10367188 0.08570313 10.05859375 0.09765625 C12.05859375 6.84765625 12.05859375 6.84765625 12.05859375 9.09765625 C12.661875 9.21882813 13.26515625 9.34 13.88671875 9.46484375 C14.6859375 9.63242187 15.48515625 9.8 16.30859375 9.97265625 C17.49195312 10.21628906 17.49195312 10.21628906 18.69921875 10.46484375 C21.02690519 11.089157 22.94891327 11.94604167 25.05859375 13.09765625 C24.42676282 16.18123305 23.38671031 18.51143617 21.7734375 21.20703125 C21.32548828 21.96113281 20.87753906 22.71523437 20.41601562 23.4921875 C19.94744141 24.26949219 19.47886719 25.04679687 18.99609375 25.84765625 C18.52365234 26.64042969 18.05121094 27.43320313 17.56445312 28.25 C16.40032802 30.20196735 15.23159473 32.1510143 14.05859375 34.09765625 C13.15882812 33.93910156 12.2590625 33.78054687 11.33203125 33.6171875 C3.66701567 32.40066355 -2.444174 32.43332741 -8.94140625 37.09765625 C-14.5499983 42.233684 -16.68614292 47.2745777 -17.484375 54.79296875 C-17.57098389 55.60008301 -17.65759277 56.40719727 -17.74682617 57.23876953 C-17.8110376 57.85220215 -17.87524902 58.46563477 -17.94140625 59.09765625 C-22.05313185 59.12231371 -26.16482903 59.14049584 -30.27661133 59.15258789 C-31.67635853 59.15762705 -33.07610045 59.16445841 -34.47583008 59.1730957 C-36.48386402 59.18517945 -38.49193582 59.19035432 -40.5 59.1953125 C-41.70970459 59.20054932 -42.91940918 59.20578613 -44.16577148 59.21118164 C-46.94140625 59.09765625 -46.94140625 59.09765625 -47.94140625 58.09765625 C-48.06655553 56.12146178 -48.11713385 54.14027452 -48.12890625 52.16015625 C-48.14308594 51.07863281 -48.15726563 49.99710938 -48.171875 48.8828125 C-47.94140625 46.09765625 -47.94140625 46.09765625 -45.94140625 44.09765625 C-43.95319312 43.70001362 -41.95196286 43.35990276 -39.94140625 43.09765625 C-39.67585938 42.33839844 -39.4103125 41.57914063 -39.13671875 40.796875 C-38.78351562 39.80300781 -38.4303125 38.80914062 -38.06640625 37.78515625 C-37.71835937 36.79902344 -37.3703125 35.81289062 -37.01171875 34.796875 C-35.94140625 32.09765625 -35.94140625 32.09765625 -33.94140625 29.09765625 C-34.3002866 26.13689334 -34.78798646 25.25107604 -36.94140625 23.09765625 C-37.05481397 19.12838609 -35.25771212 17.0237875 -32.69140625 14.22265625 C-29.40094693 11.10786827 -29.40094693 11.10786827 -26.12890625 11.03515625 C-23.94140625 12.09765625 -23.94140625 12.09765625 -21.94140625 14.09765625 C-16.03052244 13.45696605 -10.01130222 11.14733413 -4.94140625 8.09765625 C-3.55235005 4.48490385 -3.55235005 4.48490385 -3.94140625 1.09765625 C-2.94140625 0.09765625 -2.94140625 0.09765625 0 0 Z " fill="#DEDEDE" transform="translate(52.94140625,46.90234375)"/>
<path d="M0 0 C6.78030409 5.03333798 6.78030409 5.03333798 7.625 8.75 C7 11 7 11 4 13 C4.90194574 19.92190919 7.29230843 26.08573977 11 32 C13.57194855 33.69234215 14.86920565 33.81215234 18 34 C18 38.29 18 42.58 18 47 C11.07 47 4.14 47 -3 47 C-3.42317708 43.71223958 -3.84635417 40.42447917 -4.26953125 37.13671875 C-5.0088527 33.96198545 -5.37138274 32.82941772 -8 31 C-9.155 30.67 -10.31 30.34 -11.5 30 C-14.7618685 29.06803757 -15.98734181 28.60461648 -18 26 C-16.31931346 21.44702905 -14.13042406 17.25148847 -11.8125 13 C-11.27012695 11.95199219 -11.27012695 11.95199219 -10.71679688 10.8828125 C-7.90642686 5.7554593 -4.95826795 3.09967422 0 0 Z " fill="#DDDDDD" transform="translate(90,59)"/>
<path d="M0 0 C1.17111328 -0.020625 2.34222656 -0.04125 3.54882812 -0.0625 C4.66580078 -0.06765625 5.78277344 -0.0728125 6.93359375 -0.078125 C7.96411865 -0.0874707 8.99464355 -0.09681641 10.05639648 -0.10644531 C10.88341064 0.01118164 11.7104248 0.12880859 12.5625 0.25 C14.85263653 3.6852048 14.74092973 5.235331 14.5625 9.25 C15.5525 9.58 16.5425 9.91 17.5625 10.25 C17.2325 11.9 16.9025 13.55 16.5625 15.25 C13.2625 15.25 9.9625 15.25 6.5625 15.25 C6.5625 22.18 6.5625 29.11 6.5625 36.25 C4.5825 36.25 2.6025 36.25 0.5625 36.25 C0.2325 31.96 -0.0975 27.67 -0.4375 23.25 C-2.04625 22.98123047 -2.04625 22.98123047 -3.6875 22.70703125 C-7.18870394 21.70202336 -7.45028839 21.23123926 -9.6875 17.94921875 C-10.29686996 16.62364124 -10.87974977 15.28561059 -11.4375 13.9375 C-11.74816406 13.27298828 -12.05882813 12.60847656 -12.37890625 11.92382812 C-14.10231711 8.01717257 -14.90765479 5.33121094 -13.4375 1.25 C-10.83654644 -1.35095356 -3.49893851 0.01535464 0 0 Z " fill="#8E838F" transform="translate(107.4375,69.75)"/>
<path d="M0 0 C3.24649718 0.05255121 3.82008382 0.07905194 6.25 2.4375 C7.73253301 7.41457511 5.67026556 11.34111985 3.3203125 15.796875 C2.63710937 16.89515625 1.95390625 17.9934375 1.25 19.125 C0.57195312 20.23359375 -0.10609375 21.3421875 -0.8046875 22.484375 C-2.69480859 25.12341199 -4.06981481 26.7857721 -6.875 28.375 C-10.54793796 28.15462372 -12.24466546 28.00533454 -14.875 25.375 C-15.80701402 18.77533315 -13.32741046 14.86466049 -9.9375 9.5 C-9.46892578 8.72914062 -9.00035156 7.95828125 -8.51757812 7.1640625 C-4.39483579 0.42530669 -4.39483579 0.42530669 0 0 Z " fill="#DC636E" transform="translate(92.875,34.625)"/>
<path d="M0 0 C1.17111328 -0.020625 2.34222656 -0.04125 3.54882812 -0.0625 C4.66580078 -0.06765625 5.78277344 -0.0728125 6.93359375 -0.078125 C7.96411865 -0.0874707 8.99464355 -0.09681641 10.05639648 -0.10644531 C10.88341064 0.01118164 11.7104248 0.12880859 12.5625 0.25 C14.85263653 3.6852048 14.74092973 5.235331 14.5625 9.25 C10.10428834 9.33674429 5.64629196 9.39030513 1.1875 9.4375 C-0.08351563 9.46263672 -1.35453125 9.48777344 -2.6640625 9.51367188 C-3.87578125 9.52333984 -5.0875 9.53300781 -6.3359375 9.54296875 C-7.45661621 9.5586792 -8.57729492 9.57438965 -9.73193359 9.59057617 C-10.62477051 9.47818604 -11.51760742 9.3657959 -12.4375 9.25 C-14.4375 6.25 -14.4375 6.25 -14.125 3.625 C-12.46299984 -2.11645509 -5.03065426 0.02207638 0 0 Z " fill="#8B818E" transform="translate(107.4375,69.75)"/>
<path d="M0 0 C1.98 0.99 3.96 1.98 6 3 C5.6596875 3.62003906 5.319375 4.24007812 4.96875 4.87890625 C0.58560634 12.88746926 -3.71397072 20.93921904 -8 29 C-10.64 29 -13.28 29 -16 29 C-14.53310766 24.94359362 -12.55669056 21.51384907 -10.25 17.875 C-6.58923499 12.0421251 -3.22121136 6.08857753 0 0 Z " fill="#77707A" transform="translate(78,60)"/>
<path d="M0 0 C9.57 0 19.14 0 29 0 C29.33 1.65 29.66 3.3 30 5 C29 6 29 6 26.49975586 6.11352539 C25.41573486 6.10828857 24.33171387 6.10305176 23.21484375 6.09765625 C22.04501953 6.09443359 20.87519531 6.09121094 19.66992188 6.08789062 C18.43822266 6.07951172 17.20652344 6.07113281 15.9375 6.0625 C14.08415039 6.05573242 14.08415039 6.05573242 12.19335938 6.04882812 C9.12885883 6.03699608 6.06445279 6.02051173 3 6 C2.01 4.02 1.02 2.04 0 0 Z " fill="#E39543" transform="translate(95,79)"/>
<path d="M0 0 C2.31 0 4.62 0 7 0 C8 1 8 1 8.1328125 4.125 C8.13023438 5.40375 8.12765625 6.6825 8.125 8 C8.12757812 9.27875 8.13015625 10.5575 8.1328125 11.875 C8 15 8 15 7 16 C4.69 16 2.38 16 0 16 C0 10.72 0 5.44 0 0 Z " fill="#6B656D" transform="translate(117,106)"/>
<path d="M0 0 C1.45742463 -0.08096803 2.91612807 -0.13917774 4.375 -0.1875 C5.18710938 -0.22230469 5.99921875 -0.25710937 6.8359375 -0.29296875 C7.55007812 -0.19628906 8.26421875 -0.09960938 9 0 C11.29013653 3.4352048 11.17842973 4.985331 11 9 C8.36 9 5.72 9 3 9 C2.690625 7.88625 2.38125 6.7725 2.0625 5.625 C1.17673517 2.2054845 1.17673517 2.2054845 0 0 Z " fill="#766F79" transform="translate(111,70)"/>
<path d="M0 0 C1.67542976 0.28604898 3.34385343 0.61781233 5 1 C4.67 2.32 4.34 3.64 4 5 C2.68 5.33 1.36 5.66 0 6 C-0.38218767 4.34385343 -0.71395102 2.67542976 -1 1 C-0.67 0.67 -0.34 0.34 0 0 Z " fill="#938A96" transform="translate(50,65)"/>
<path d="M0 0 C1.65 0.33 3.3 0.66 5 1 C4.67 2.32 4.34 3.64 4 5 C2.35 4.67 0.7 4.34 -1 4 C-0.67 2.68 -0.34 1.36 0 0 Z " fill="#8F8692" transform="translate(24,88)"/>
<path d="M0 0 C1.98 0.495 1.98 0.495 4 1 C3.67 2.65 3.34 4.3 3 6 C1.68 5.67 0.36 5.34 -1 5 C-0.67 3.35 -0.34 1.7 0 0 Z " fill="#8E8491" transform="translate(30,77)"/>
<path d="M0 0 C1.98 0.495 1.98 0.495 4 1 C3.67 2.65 3.34 4.3 3 6 C1.68 5.67 0.36 5.34 -1 5 C-0.67 3.35 -0.34 1.7 0 0 Z " fill="#8F8592" transform="translate(39,69)"/>
</g>
</svg>
